<svg xmlns="http://www.w3.org/2000/svg" viewBox="0 0 256 256" role="img" aria-labelledby="title desc">
  <title id="title">Ghost EMF Logo</title>
  <desc id="desc">A spectral green ghost waveform around a central eye.</desc>
  <defs>
    <linearGradient id="glow" x1="0%" x2="100%" y1="0%" y2="100%">
      <stop offset="0%" stop-color="#d6ffa6"/>
      <stop offset="55%" stop-color="#7affae"/>
      <stop offset="100%" stop-color="#24ff76"/>
    </linearGradient>
    <filter id="soft-glow" x="-20%" y="-20%" width="140%" height="140%">
      <feGaussianBlur stdDeviation="6" result="blur"/>
      <feMerge>
        <feMergeNode in="blur"/>
        <feMergeNode in="SourceGraphic"/>
      </feMerge>
    </filter>
  </defs>
  <rect width="256" height="256" rx="52" fill="#07110f"/>
  <path
    d="M128 34c-43 0-78 31-78 76 0 22 8 38 19 53 7 10 13 22 13 35 0 5 5 8 10 5l18-11c5-3 11 0 11 6v8c0 6 5 10 10 10h14c5 0 10-4 10-10v-8c0-6 6-9 11-6l18 11c5 3 10 0 10-5 0-13 6-25 13-35 11-15 19-31 19-53 0-45-35-76-78-76Z"
    fill="url(#glow)"
    filter="url(#soft-glow)"
  />
  <path
    d="M63 116c22-18 44 22 65 0 21-22 43 18 65 0"
    fill="none"
    stroke="#04100a"
    stroke-linecap="round"
    stroke-width="14"
  />
  <circle cx="128" cy="104" r="24" fill="#07110f"/>
  <circle cx="128" cy="104" r="11" fill="#d6ffa6"/>
  <path
    d="M68 161c17 10 35-7 52 0 17 7 35-10 52 0 17 10 31-5 44-1"
    fill="none"
    stroke="#04100a"
    stroke-linecap="round"
    stroke-width="10"
  />
  <path
    d="M65 188c20-12 38 10 63-2 25-12 45 12 63-2"
    fill="none"
    stroke="#d6ffa6"
    stroke-linecap="round"
    stroke-width="8"
    opacity="0.72"
  />
</svg>
